# xmcd CD database file
#
# Track frame offsets:
#	182
#	15695
#	29952
#	42285
#	51367
#	65927
#	79990
#	93035
#	103155
#	121867
#	135092
#	147417
#	155065
#	168527
#	179902
#	194315
#	206840
#	220302
#	231002
#	247790
#
# Disc length: 3452 seconds
#
# Revision: 4
# Processed by: cddbd v1.5.2PL0 Copyright (c) Steve Scherf et al.
# Submitted via: CDex 1.51
#
DISCID=2d0d7a14
DTITLE=Various Artist - Country Heartbreakers
DYEAR=1990
DGENRE=Country
TTITLE0=He Stopped Loving Her Today - George Jones
TTITLE1=Love Don't Care (Whose Heart It Breaks) - Earl Thomas Conley
TTITLE2=Lonely Days, Lonely Nights - Patty Loveless
TTITLE3=We're Over - Johnny Rodriguez
TTITLE4=Crying In The Rrain - Tammy Wynette
TTITLE5=I'm So Lonesome I Could Cry - Gary Morris
TTITLE6=Love Is Fair - Lorrie Morgan
TTITLE7=Wasted Days And Wasted Nights - Freddy Fender
TTITLE8=Without You - T.G. Sheppard
TTITLE9=Cry - Lynn Anderson
TTITLE10=Lost My Baby Blues - David Frizzell
TTITLE11=Heartaches By The Number - Johnny Tillotson
TTITLE12=Bandy, The Rodeo Clown - Moe Bandy
TTITLE13=It's Over - Rex Allen Jr.
TTITLE14=Over You - Lane Brody
TTITLE15=It Turns Me Inside Out - Lee Greenwood
TTITLE16=Did We Have To Come This Far To Say Goodbye - Connie Smith
TTITLE17=Standard Lie Number One - Stella Parton
TTITLE18=You Need A Lady In Your Life - Mickey Gilley
TTITLE19=A Lesson In Leavin' - Dottie West
EXTD=YEAR: 1990
EXTT0=
EXTT1=
EXTT2=
EXTT3=
EXTT4=
EXTT5=
EXTT6=
EXTT7=
EXTT8=
EXTT9=
EXTT10=
EXTT11=
EXTT12=
EXTT13=
EXTT14=
EXTT15=
EXTT16=
EXTT17=
EXTT18=
EXTT19=
PLAYORDER=
